<svg width="172" height="229" viewBox="0 0 172 229" fill="none" xmlns="http://www.w3.org/2000/svg">
<rect x="1" y="18" width="170" height="210" rx="20" fill="#F8E7EB" fill-opacity="0.4" stroke="#BE123C" stroke-opacity="0.7"/>
<path d="M22.36 143.428H18.34V145.816C18.508 145.592 18.756 145.404 19.084 145.252C19.42 145.1 19.776 145.024 20.152 145.024C20.824 145.024 21.368 145.168 21.784 145.456C22.208 145.744 22.508 146.108 22.684 146.548C22.868 146.988 22.96 147.452 22.96 147.94C22.96 148.532 22.844 149.06 22.612 149.524C22.388 149.98 22.048 150.34 21.592 150.604C21.144 150.868 20.592 151 19.936 151C19.064 151 18.364 150.784 17.836 150.352C17.308 149.92 16.992 149.348 16.888 148.636H18.22C18.308 149.012 18.504 149.312 18.808 149.536C19.112 149.752 19.492 149.86 19.948 149.86C20.516 149.86 20.94 149.688 21.22 149.344C21.508 149 21.652 148.544 21.652 147.976C21.652 147.4 21.508 146.96 21.22 146.656C20.932 146.344 20.508 146.188 19.948 146.188C19.556 146.188 19.224 146.288 18.952 146.488C18.688 146.68 18.496 146.944 18.376 147.28H17.08V142.228H22.36V143.428ZM24.3841 146.512C24.3841 145.128 24.6161 144.048 25.0801 143.272C25.5521 142.488 26.3601 142.096 27.5041 142.096C28.6481 142.096 29.4521 142.488 29.9161 143.272C30.3881 144.048 30.6241 145.128 30.6241 146.512C30.6241 147.912 30.3881 149.008 29.9161 149.8C29.4521 150.584 28.6481 150.976 27.5041 150.976C26.3601 150.976 25.5521 150.584 25.0801 149.8C24.6161 149.008 24.3841 147.912 24.3841 146.512ZM29.2801 146.512C29.2801 145.864 29.2361 145.316 29.1481 144.868C29.0681 144.42 28.9001 144.056 28.6441 143.776C28.3881 143.488 28.0081 143.344 27.5041 143.344C27.0001 143.344 26.6201 143.488 26.3641 143.776C26.1081 144.056 25.9361 144.42 25.8481 144.868C25.7681 145.316 25.7281 145.864 25.7281 146.512C25.7281 147.184 25.7681 147.748 25.8481 148.204C25.9281 148.66 26.0961 149.028 26.3521 149.308C26.6161 149.588 27.0001 149.728 27.5041 149.728C28.0081 149.728 28.3881 149.588 28.6441 149.308C28.9081 149.028 29.0801 148.66 29.1601 148.204C29.2401 147.748 29.2801 147.184 29.2801 146.512ZM34.8676 147.7L37.9156 151H36.0676L33.6196 148.156V151H32.2516V142.12H33.6196V147.28L36.0196 144.388H37.9156L34.8676 147.7ZM43.3813 145.36C43.6133 145.056 43.9293 144.8 44.3293 144.592C44.7293 144.384 45.1813 144.28 45.6853 144.28C46.2613 144.28 46.7853 144.424 47.2573 144.712C47.7373 144.992 48.1133 145.388 48.3853 145.9C48.6573 146.412 48.7933 147 48.7933 147.664C48.7933 148.328 48.6573 148.924 48.3853 149.452C48.1133 149.972 47.7373 150.38 47.2573 150.676C46.7853 150.964 46.2613 151.108 45.6853 151.108C45.1813 151.108 44.7333 151.008 44.3413 150.808C43.9493 150.6 43.6293 150.344 43.3813 150.04V154.144H42.0133V144.388H43.3813V145.36ZM47.4013 147.664C47.4013 147.208 47.3053 146.816 47.1133 146.488C46.9293 146.152 46.6813 145.9 46.3693 145.732C46.0653 145.556 45.7373 145.468 45.3853 145.468C45.0413 145.468 44.7133 145.556 44.4013 145.732C44.0973 145.908 43.8493 146.164 43.6573 146.5C43.4733 146.836 43.3813 147.232 43.3813 147.688C43.3813 148.144 43.4733 148.544 43.6573 148.888C43.8493 149.224 44.0973 149.48 44.4013 149.656C44.7133 149.832 45.0413 149.92 45.3853 149.92C45.7373 149.92 46.0653 149.832 46.3693 149.656C46.6813 149.472 46.9293 149.208 47.1133 148.864C47.3053 148.52 47.4013 148.12 47.4013 147.664ZM56.2061 147.532C56.2061 147.78 56.1901 148.004 56.1581 148.204H51.1061C51.1461 148.732 51.3421 149.156 51.6941 149.476C52.0461 149.796 52.4781 149.956 52.9901 149.956C53.7261 149.956 54.2461 149.648 54.5501 149.032H56.0261C55.8261 149.64 55.4621 150.14 54.9341 150.532C54.4141 150.916 53.7661 151.108 52.9901 151.108C52.3581 151.108 51.7901 150.968 51.2861 150.688C50.7901 150.4 50.3981 150 50.1101 149.488C49.8301 148.968 49.6901 148.368 49.6901 147.688C49.6901 147.008 49.8261 146.412 50.0981 145.9C50.3781 145.38 50.7661 144.98 51.2621 144.7C51.7661 144.42 52.3421 144.28 52.9901 144.28C53.6141 144.28 54.1701 144.416 54.6581 144.688C55.1461 144.96 55.5261 145.344 55.7981 145.84C56.0701 146.328 56.2061 146.892 56.2061 147.532ZM54.7781 147.1C54.7701 146.596 54.5901 146.192 54.2381 145.888C53.8861 145.584 53.4501 145.432 52.9301 145.432C52.4581 145.432 52.0541 145.584 51.7181 145.888C51.3821 146.184 51.1821 146.588 51.1181 147.1H54.7781ZM60.4203 151.108C59.7963 151.108 59.2323 150.968 58.7283 150.688C58.2243 150.4 57.8283 150 57.5403 149.488C57.2523 148.968 57.1083 148.368 57.1083 147.688C57.1083 147.016 57.2563 146.42 57.5523 145.9C57.8483 145.38 58.2523 144.98 58.7643 144.7C59.2763 144.42 59.8483 144.28 60.4803 144.28C61.1123 144.28 61.6843 144.42 62.1963 144.7C62.7083 144.98 63.1123 145.38 63.4083 145.9C63.7043 146.42 63.8523 147.016 63.8523 147.688C63.8523 148.36 63.7003 148.956 63.3963 149.476C63.0923 149.996 62.6763 150.4 62.1483 150.688C61.6283 150.968 61.0523 151.108 60.4203 151.108ZM60.4203 149.92C60.7723 149.92 61.1003 149.836 61.4043 149.668C61.7163 149.5 61.9683 149.248 62.1603 148.912C62.3523 148.576 62.4483 148.168 62.4483 147.688C62.4483 147.208 62.3563 146.804 62.1723 146.476C61.9883 146.14 61.7443 145.888 61.4403 145.72C61.1363 145.552 60.8083 145.468 60.4563 145.468C60.1043 145.468 59.7763 145.552 59.4723 145.72C59.1763 145.888 58.9403 146.14 58.7643 146.476C58.5883 146.804 58.5003 147.208 58.5003 147.688C58.5003 148.4 58.6803 148.952 59.0403 149.344C59.4083 149.728 59.8683 149.92 60.4203 149.92ZM66.5727 145.36C66.8047 145.056 67.1207 144.8 67.5207 144.592C67.9207 144.384 68.3727 144.28 68.8767 144.28C69.4527 144.28 69.9767 144.424 70.4487 144.712C70.9287 144.992 71.3047 145.388 71.5767 145.9C71.8487 146.412 71.9847 147 71.9847 147.664C71.9847 148.328 71.8487 148.924 71.5767 149.452C71.3047 149.972 70.9287 150.38 70.4487 150.676C69.9767 150.964 69.4527 151.108 68.8767 151.108C68.3727 151.108 67.9247 151.008 67.5327 150.808C67.1407 150.6 66.8207 150.344 66.5727 150.04V154.144H65.2047V144.388H66.5727V145.36ZM70.5927 147.664C70.5927 147.208 70.4967 146.816 70.3047 146.488C70.1207 146.152 69.8727 145.9 69.5607 145.732C69.2567 145.556 68.9287 145.468 68.5767 145.468C68.2327 145.468 67.9047 145.556 67.5927 145.732C67.2887 145.908 67.0407 146.164 66.8487 146.5C66.6647 146.836 66.5727 147.232 66.5727 147.688C66.5727 148.144 66.6647 148.544 66.8487 148.888C67.0407 149.224 67.2887 149.48 67.5927 149.656C67.9047 149.832 68.2327 149.92 68.5767 149.92C68.9287 149.92 69.2567 149.832 69.5607 149.656C69.8727 149.472 70.1207 149.208 70.3047 148.864C70.4967 148.52 70.5927 148.12 70.5927 147.664ZM74.7055 142.12V151H73.3375V142.12H74.7055ZM82.5616 147.532C82.5616 147.78 82.5456 148.004 82.5136 148.204H77.4616C77.5016 148.732 77.6976 149.156 78.0496 149.476C78.4016 149.796 78.8336 149.956 79.3456 149.956C80.0816 149.956 80.6016 149.648 80.9056 149.032H82.3816C82.1816 149.64 81.8176 150.14 81.2896 150.532C80.7696 150.916 80.1216 151.108 79.3456 151.108C78.7136 151.108 78.1456 150.968 77.6416 150.688C77.1456 150.4 76.7536 150 76.4656 149.488C76.1856 148.968 76.0456 148.368 76.0456 147.688C76.0456 147.008 76.1816 146.412 76.4536 145.9C76.7336 145.38 77.1216 144.98 77.6176 144.7C78.1216 144.42 78.6976 144.28 79.3456 144.28C79.9696 144.28 80.5256 144.416 81.0136 144.688C81.5016 144.96 81.8816 145.344 82.1536 145.84C82.4256 146.328 82.5616 146.892 82.5616 147.532ZM81.1336 147.1C81.1256 146.596 80.9456 146.192 80.5936 145.888C80.2416 145.584 79.8056 145.432 79.2856 145.432C78.8136 145.432 78.4096 145.584 78.0736 145.888C77.7376 146.184 77.5376 146.588 77.4736 147.1H81.1336ZM86.569 147.664C86.569 147 86.705 146.412 86.977 145.9C87.257 145.388 87.633 144.992 88.105 144.712C88.585 144.424 89.113 144.28 89.689 144.28C90.209 144.28 90.661 144.384 91.045 144.592C91.437 144.792 91.749 145.044 91.981 145.348V144.388H93.361V151H91.981V150.016C91.749 150.328 91.433 150.588 91.033 150.796C90.633 151.004 90.177 151.108 89.665 151.108C89.097 151.108 88.577 150.964 88.105 150.676C87.633 150.38 87.257 149.972 86.977 149.452C86.705 148.924 86.569 148.328 86.569 147.664ZM91.981 147.688C91.981 147.232 91.885 146.836 91.693 146.5C91.509 146.164 91.265 145.908 90.961 145.732C90.657 145.556 90.329 145.468 89.977 145.468C89.625 145.468 89.297 145.556 88.993 145.732C88.689 145.9 88.441 146.152 88.249 146.488C88.065 146.816 87.973 147.208 87.973 147.664C87.973 148.12 88.065 148.52 88.249 148.864C88.441 149.208 88.689 149.472 88.993 149.656C89.305 149.832 89.633 149.92 89.977 149.92C90.329 149.92 90.657 149.832 90.961 149.656C91.265 149.48 91.509 149.224 91.693 148.888C91.885 148.544 91.981 148.144 91.981 147.688ZM96.5258 145.348C96.7258 145.012 96.9898 144.752 97.3178 144.568C97.6538 144.376 98.0498 144.28 98.5058 144.28V145.696H98.1578C97.6218 145.696 97.2138 145.832 96.9338 146.104C96.6618 146.376 96.5258 146.848 96.5258 147.52V151H95.1578V144.388H96.5258V145.348ZM105.823 147.532C105.823 147.78 105.807 148.004 105.775 148.204H100.723C100.763 148.732 100.959 149.156 101.311 149.476C101.663 149.796 102.095 149.956 102.607 149.956C103.343 149.956 103.863 149.648 104.167 149.032H105.643C105.443 149.64 105.079 150.14 104.551 150.532C104.031 150.916 103.383 151.108 102.607 151.108C101.975 151.108 101.407 150.968 100.903 150.688C100.407 150.4 100.015 150 99.7273 149.488C99.4473 148.968 99.3073 148.368 99.3073 147.688C99.3073 147.008 99.4433 146.412 99.7153 145.9C99.9953 145.38 100.383 144.98 100.879 144.7C101.383 144.42 101.959 144.28 102.607 144.28C103.231 144.28 103.787 144.416 104.275 144.688C104.763 144.96 105.143 145.344 105.415 145.84C105.687 146.328 105.823 146.892 105.823 147.532ZM104.395 147.1C104.387 146.596 104.207 146.192 103.855 145.888C103.503 145.584 103.067 145.432 102.547 145.432C102.075 145.432 101.671 145.584 101.335 145.888C100.999 146.184 100.799 146.588 100.735 147.1H104.395ZM111.655 145.36C111.887 145.056 112.203 144.8 112.603 144.592C113.003 144.384 113.455 144.28 113.959 144.28C114.535 144.28 115.059 144.424 115.531 144.712C116.011 144.992 116.387 145.388 116.659 145.9C116.931 146.412 117.067 147 117.067 147.664C117.067 148.328 116.931 148.924 116.659 149.452C116.387 149.972 116.011 150.38 115.531 150.676C115.059 150.964 114.535 151.108 113.959 151.108C113.455 151.108 113.007 151.008 112.615 150.808C112.223 150.6 111.903 150.344 111.655 150.04V154.144H110.287V144.388H111.655V145.36ZM115.675 147.664C115.675 147.208 115.579 146.816 115.387 146.488C115.203 146.152 114.955 145.9 114.643 145.732C114.339 145.556 114.011 145.468 113.659 145.468C113.315 145.468 112.987 145.556 112.675 145.732C112.371 145.908 112.123 146.164 111.931 146.5C111.747 146.836 111.655 147.232 111.655 147.688C111.655 148.144 111.747 148.544 111.931 148.888C112.123 149.224 112.371 149.48 112.675 149.656C112.987 149.832 113.315 149.92 113.659 149.92C114.011 149.92 114.339 149.832 114.643 149.656C114.955 149.472 115.203 149.208 115.387 148.864C115.579 148.52 115.675 148.12 115.675 147.664ZM119.788 142.12V151H118.42V142.12H119.788ZM121.128 147.664C121.128 147 121.264 146.412 121.536 145.9C121.816 145.388 122.192 144.992 122.664 144.712C123.144 144.424 123.672 144.28 124.248 144.28C124.768 144.28 125.22 144.384 125.604 144.592C125.996 144.792 126.308 145.044 126.54 145.348V144.388H127.92V151H126.54V150.016C126.308 150.328 125.992 150.588 125.592 150.796C125.192 151.004 124.736 151.108 124.224 151.108C123.656 151.108 123.136 150.964 122.664 150.676C122.192 150.38 121.816 149.972 121.536 149.452C121.264 148.924 121.128 148.328 121.128 147.664ZM126.54 147.688C126.54 147.232 126.444 146.836 126.252 146.5C126.068 146.164 125.824 145.908 125.52 145.732C125.216 145.556 124.888 145.468 124.536 145.468C124.184 145.468 123.856 145.556 123.552 145.732C123.248 145.9 123 146.152 122.808 146.488C122.624 146.816 122.532 147.208 122.532 147.664C122.532 148.12 122.624 148.52 122.808 148.864C123 149.208 123.248 149.472 123.552 149.656C123.864 149.832 124.192 149.92 124.536 149.92C124.888 149.92 125.216 149.832 125.52 149.656C125.824 149.48 126.068 149.224 126.252 148.888C126.444 148.544 126.54 148.144 126.54 147.688ZM135.668 144.388L131.612 154.108H130.196L131.54 150.892L128.936 144.388H130.46L132.32 149.428L134.252 144.388H135.668ZM137.397 143.512C137.149 143.512 136.941 143.428 136.773 143.26C136.605 143.092 136.521 142.884 136.521 142.636C136.521 142.388 136.605 142.18 136.773 142.012C136.941 141.844 137.149 141.76 137.397 141.76C137.637 141.76 137.841 141.844 138.009 142.012C138.177 142.18 138.261 142.388 138.261 142.636C138.261 142.884 138.177 143.092 138.009 143.26C137.841 143.428 137.637 143.512 137.397 143.512ZM138.069 144.388V151H136.701V144.388H138.069ZM143.201 144.28C143.721 144.28 144.185 144.388 144.593 144.604C145.009 144.82 145.333 145.14 145.565 145.564C145.797 145.988 145.913 146.5 145.913 147.1V151H144.557V147.304C144.557 146.712 144.409 146.26 144.113 145.948C143.817 145.628 143.413 145.468 142.901 145.468C142.389 145.468 141.981 145.628 141.677 145.948C141.381 146.26 141.233 146.712 141.233 147.304V151H139.865V144.388H141.233V145.144C141.457 144.872 141.741 144.66 142.085 144.508C142.437 144.356 142.809 144.28 143.201 144.28ZM150.322 144.28C150.834 144.28 151.286 144.384 151.678 144.592C152.078 144.792 152.39 145.044 152.614 145.348V144.388H153.994V151.108C153.994 151.716 153.866 152.256 153.61 152.728C153.354 153.208 152.982 153.584 152.494 153.856C152.014 154.128 151.438 154.264 150.766 154.264C149.87 154.264 149.126 154.052 148.534 153.628C147.942 153.212 147.606 152.644 147.526 151.924H148.882C148.986 152.268 149.206 152.544 149.542 152.752C149.886 152.968 150.294 153.076 150.766 153.076C151.318 153.076 151.762 152.908 152.098 152.572C152.442 152.236 152.614 151.748 152.614 151.108V150.004C152.382 150.316 152.066 150.58 151.666 150.796C151.274 151.004 150.826 151.108 150.322 151.108C149.746 151.108 149.218 150.964 148.738 150.676C148.266 150.38 147.89 149.972 147.61 149.452C147.338 148.924 147.202 148.328 147.202 147.664C147.202 147 147.338 146.412 147.61 145.9C147.89 145.388 148.266 144.992 148.738 144.712C149.218 144.424 149.746 144.28 150.322 144.28ZM152.614 147.688C152.614 147.232 152.518 146.836 152.326 146.5C152.142 146.164 151.898 145.908 151.594 145.732C151.29 145.556 150.962 145.468 150.61 145.468C150.258 145.468 149.93 145.556 149.626 145.732C149.322 145.9 149.074 146.152 148.882 146.488C148.698 146.816 148.606 147.208 148.606 147.664C148.606 148.12 148.698 148.52 148.882 148.864C149.074 149.208 149.322 149.472 149.626 149.656C149.938 149.832 150.266 149.92 150.61 149.92C150.962 149.92 151.29 149.832 151.594 149.656C151.898 149.48 152.142 149.224 152.326 148.888C152.518 148.544 152.614 148.144 152.614 147.688ZM20.236 162.28C20.756 162.28 21.22 162.388 21.628 162.604C22.044 162.82 22.368 163.14 22.6 163.564C22.832 163.988 22.948 164.5 22.948 165.1V169H21.592V165.304C21.592 164.712 21.444 164.26 21.148 163.948C20.852 163.628 20.448 163.468 19.936 163.468C19.424 163.468 19.016 163.628 18.712 163.948C18.416 164.26 18.268 164.712 18.268 165.304V169H16.9V162.388H18.268V163.144C18.492 162.872 18.776 162.66 19.12 162.508C19.472 162.356 19.844 162.28 20.236 162.28ZM27.561 169.108C26.937 169.108 26.373 168.968 25.869 168.688C25.365 168.4 24.969 168 24.681 167.488C24.393 166.968 24.249 166.368 24.249 165.688C24.249 165.016 24.397 164.42 24.693 163.9C24.989 163.38 25.393 162.98 25.905 162.7C26.417 162.42 26.989 162.28 27.621 162.28C28.253 162.28 28.825 162.42 29.337 162.7C29.849 162.98 30.253 163.38 30.549 163.9C30.845 164.42 30.993 165.016 30.993 165.688C30.993 166.36 30.841 166.956 30.537 167.476C30.233 167.996 29.817 168.4 29.289 168.688C28.769 168.968 28.193 169.108 27.561 169.108ZM27.561 167.92C27.913 167.92 28.241 167.836 28.545 167.668C28.857 167.5 29.109 167.248 29.301 166.912C29.493 166.576 29.589 166.168 29.589 165.688C29.589 165.208 29.497 164.804 29.313 164.476C29.129 164.14 28.885 163.888 28.581 163.72C28.277 163.552 27.949 163.468 27.597 163.468C27.245 163.468 26.917 163.552 26.613 163.72C26.317 163.888 26.081 164.14 25.905 164.476C25.729 164.804 25.641 165.208 25.641 165.688C25.641 166.4 25.821 166.952 26.181 167.344C26.549 167.728 27.009 167.92 27.561 167.92ZM41.2253 162.388L39.1733 169H37.7333L36.4013 164.116L35.0693 169H33.6293L31.5653 162.388H32.9573L34.3373 167.704L35.7413 162.388H37.1693L38.5133 167.68L39.8813 162.388H41.2253Z" fill="#666666"/>
<path d="M25.67 69.77C25.67 70.33 25.535 70.855 25.265 71.345C25.005 71.835 24.59 72.23 24.02 72.53C23.46 72.83 22.75 72.98 21.89 72.98H20.135V77H18.035V66.53H21.89C22.7 66.53 23.39 66.67 23.96 66.95C24.53 67.23 24.955 67.615 25.235 68.105C25.525 68.595 25.67 69.15 25.67 69.77ZM21.8 71.285C22.38 71.285 22.81 71.155 23.09 70.895C23.37 70.625 23.51 70.25 23.51 69.77C23.51 68.75 22.94 68.24 21.8 68.24H20.135V71.285H21.8ZM29.261 65.9V77H27.161V65.9H29.261ZM30.7958 72.815C30.7958 71.975 30.9608 71.23 31.2908 70.58C31.6308 69.93 32.0858 69.43 32.6558 69.08C33.2358 68.73 33.8808 68.555 34.5908 68.555C35.2108 68.555 35.7508 68.68 36.2108 68.93C36.6808 69.18 37.0558 69.495 37.3358 69.875V68.69H39.4508V77H37.3358V75.785C37.0658 76.175 36.6908 76.5 36.2108 76.76C35.7408 77.01 35.1958 77.135 34.5758 77.135C33.8758 77.135 33.2358 76.955 32.6558 76.595C32.0858 76.235 31.6308 75.73 31.2908 75.08C30.9608 74.42 30.7958 73.665 30.7958 72.815ZM37.3358 72.845C37.3358 72.335 37.2358 71.9 37.0358 71.54C36.8358 71.17 36.5658 70.89 36.2258 70.7C35.8858 70.5 35.5208 70.4 35.1308 70.4C34.7408 70.4 34.3808 70.495 34.0508 70.685C33.7208 70.875 33.4508 71.155 33.2408 71.525C33.0408 71.885 32.9408 72.315 32.9408 72.815C32.9408 73.315 33.0408 73.755 33.2408 74.135C33.4508 74.505 33.7208 74.79 34.0508 74.99C34.3908 75.19 34.7508 75.29 35.1308 75.29C35.5208 75.29 35.8858 75.195 36.2258 75.005C36.5658 74.805 36.8358 74.525 37.0358 74.165C37.2358 73.795 37.3358 73.355 37.3358 72.845ZM49.4518 68.69L44.3068 80.93H42.0718L43.8718 76.79L40.5418 68.69H42.8968L45.0418 74.495L47.2168 68.69H49.4518ZM64.478 68.57C65.498 68.57 66.318 68.885 66.938 69.515C67.568 70.135 67.883 71.005 67.883 72.125V77H65.783V72.41C65.783 71.76 65.618 71.265 65.288 70.925C64.958 70.575 64.508 70.4 63.938 70.4C63.368 70.4 62.913 70.575 62.573 70.925C62.243 71.265 62.078 71.76 62.078 72.41V77H59.978V72.41C59.978 71.76 59.813 71.265 59.483 70.925C59.153 70.575 58.703 70.4 58.133 70.4C57.553 70.4 57.093 70.575 56.753 70.925C56.423 71.265 56.258 71.76 56.258 72.41V77H54.158V68.69H56.258V69.695C56.528 69.345 56.873 69.07 57.293 68.87C57.723 68.67 58.193 68.57 58.703 68.57C59.353 68.57 59.933 68.71 60.443 68.99C60.953 69.26 61.348 69.65 61.628 70.16C61.898 69.68 62.288 69.295 62.798 69.005C63.318 68.715 63.878 68.57 64.478 68.57ZM73.5658 77.135C72.7658 77.135 72.0458 76.96 71.4058 76.61C70.7658 76.25 70.2608 75.745 69.8908 75.095C69.5308 74.445 69.3508 73.695 69.3508 72.845C69.3508 71.995 69.5358 71.245 69.9058 70.595C70.2858 69.945 70.8008 69.445 71.4508 69.095C72.1008 68.735 72.8258 68.555 73.6258 68.555C74.4258 68.555 75.1508 68.735 75.8008 69.095C76.4508 69.445 76.9608 69.945 77.3308 70.595C77.7108 71.245 77.9008 71.995 77.9008 72.845C77.9008 73.695 77.7058 74.445 77.3158 75.095C76.9358 75.745 76.4158 76.25 75.7558 76.61C75.1058 76.96 74.3758 77.135 73.5658 77.135ZM73.5658 75.305C73.9458 75.305 74.3008 75.215 74.6308 75.035C74.9708 74.845 75.2408 74.565 75.4408 74.195C75.6408 73.825 75.7408 73.375 75.7408 72.845C75.7408 72.055 75.5308 71.45 75.1108 71.03C74.7008 70.6 74.1958 70.385 73.5958 70.385C72.9958 70.385 72.4908 70.6 72.0808 71.03C71.6808 71.45 71.4808 72.055 71.4808 72.845C71.4808 73.635 71.6758 74.245 72.0658 74.675C72.4658 75.095 72.9658 75.305 73.5658 75.305ZM82.9063 75.065L85.0063 68.69H87.2413L84.1663 77H81.6163L78.5563 68.69H80.8063L82.9063 75.065ZM89.4857 67.7C89.1157 67.7 88.8057 67.585 88.5557 67.355C88.3157 67.115 88.1957 66.82 88.1957 66.47C88.1957 66.12 88.3157 65.83 88.5557 65.6C88.8057 65.36 89.1157 65.24 89.4857 65.24C89.8557 65.24 90.1607 65.36 90.4007 65.6C90.6507 65.83 90.7757 66.12 90.7757 66.47C90.7757 66.82 90.6507 67.115 90.4007 67.355C90.1607 67.585 89.8557 67.7 89.4857 67.7ZM90.5207 68.69V77H88.4207V68.69H90.5207ZM100.321 72.665C100.321 72.965 100.301 73.235 100.261 73.475H94.1855C94.2355 74.075 94.4455 74.545 94.8155 74.885C95.1855 75.225 95.6405 75.395 96.1805 75.395C96.9605 75.395 97.5155 75.06 97.8455 74.39H100.111C99.8705 75.19 99.4105 75.85 98.7305 76.37C98.0505 76.88 97.2155 77.135 96.2255 77.135C95.4255 77.135 94.7055 76.96 94.0655 76.61C93.4355 76.25 92.9405 75.745 92.5805 75.095C92.2305 74.445 92.0555 73.695 92.0555 72.845C92.0555 71.985 92.2305 71.23 92.5805 70.58C92.9305 69.93 93.4205 69.43 94.0505 69.08C94.6805 68.73 95.4055 68.555 96.2255 68.555C97.0155 68.555 97.7205 68.725 98.3405 69.065C98.9705 69.405 99.4555 69.89 99.7955 70.52C100.146 71.14 100.321 71.855 100.321 72.665ZM98.1455 72.065C98.1355 71.525 97.9405 71.095 97.5605 70.775C97.1805 70.445 96.7155 70.28 96.1655 70.28C95.6455 70.28 95.2055 70.44 94.8455 70.76C94.4955 71.07 94.2805 71.505 94.2005 72.065H98.1455ZM104.888 72.83C104.888 72 105.058 71.265 105.398 70.625C105.748 69.975 106.218 69.47 106.808 69.11C107.398 68.75 108.048 68.57 108.758 68.57C109.348 68.57 109.868 68.685 110.318 68.915C110.778 69.135 111.148 69.42 111.428 69.77V68.69H113.543V80.96H111.428V75.86C111.148 76.22 110.773 76.52 110.303 76.76C109.833 77 109.303 77.12 108.713 77.12C108.013 77.12 107.368 76.94 106.778 76.58C106.198 76.21 105.738 75.7 105.398 75.05C105.058 74.4 104.888 73.66 104.888 72.83ZM111.428 72.845C111.428 72.335 111.323 71.895 111.113 71.525C110.903 71.155 110.628 70.875 110.288 70.685C109.958 70.495 109.603 70.4 109.223 70.4C108.853 70.4 108.498 70.495 108.158 70.685C107.828 70.875 107.558 71.155 107.348 71.525C107.138 71.885 107.033 72.32 107.033 72.83C107.033 73.34 107.138 73.785 107.348 74.165C107.558 74.535 107.828 74.815 108.158 75.005C108.498 75.195 108.853 75.29 109.223 75.29C109.603 75.29 109.958 75.195 110.288 75.005C110.628 74.815 110.903 74.535 111.113 74.165C111.323 73.795 111.428 73.355 111.428 72.845ZM123.439 68.69V77H121.324V75.95C121.054 76.31 120.699 76.595 120.259 76.805C119.829 77.005 119.359 77.105 118.849 77.105C118.199 77.105 117.624 76.97 117.124 76.7C116.624 76.42 116.229 76.015 115.939 75.485C115.659 74.945 115.519 74.305 115.519 73.565V68.69H117.619V73.265C117.619 73.925 117.784 74.435 118.114 74.795C118.444 75.145 118.894 75.32 119.464 75.32C120.044 75.32 120.499 75.145 120.829 74.795C121.159 74.435 121.324 73.925 121.324 73.265V68.69H123.439ZM126.576 67.7C126.206 67.7 125.896 67.585 125.646 67.355C125.406 67.115 125.286 66.82 125.286 66.47C125.286 66.12 125.406 65.83 125.646 65.6C125.896 65.36 126.206 65.24 126.576 65.24C126.946 65.24 127.251 65.36 127.491 65.6C127.741 65.83 127.866 66.12 127.866 66.47C127.866 66.82 127.741 67.115 127.491 67.355C127.251 67.585 126.946 67.7 126.576 67.7ZM127.611 68.69V77H125.511V68.69H127.611ZM131.605 75.275H135.31V77H129.22V75.305L132.85 70.415H129.235V68.69H135.265V70.385L131.605 75.275ZM144.661 72.665C144.661 72.965 144.641 73.235 144.601 73.475H138.526C138.576 74.075 138.786 74.545 139.156 74.885C139.526 75.225 139.981 75.395 140.521 75.395C141.301 75.395 141.856 75.06 142.186 74.39H144.451C144.211 75.19 143.751 75.85 143.071 76.37C142.391 76.88 141.556 77.135 140.566 77.135C139.766 77.135 139.046 76.96 138.406 76.61C137.776 76.25 137.281 75.745 136.921 75.095C136.571 74.445 136.396 73.695 136.396 72.845C136.396 71.985 136.571 71.23 136.921 70.58C137.271 69.93 137.761 69.43 138.391 69.08C139.021 68.73 139.746 68.555 140.566 68.555C141.356 68.555 142.061 68.725 142.681 69.065C143.311 69.405 143.796 69.89 144.136 70.52C144.486 71.14 144.661 71.855 144.661 72.665ZM142.486 72.065C142.476 71.525 142.281 71.095 141.901 70.775C141.521 70.445 141.056 70.28 140.506 70.28C139.986 70.28 139.546 70.44 139.186 70.76C138.836 71.07 138.621 71.505 138.541 72.065H142.486ZM149.374 77.135C148.694 77.135 148.084 77.015 147.544 76.775C147.004 76.525 146.574 76.19 146.254 75.77C145.944 75.35 145.774 74.885 145.744 74.375H147.859C147.899 74.695 148.054 74.96 148.324 75.17C148.604 75.38 148.949 75.485 149.359 75.485C149.759 75.485 150.069 75.405 150.289 75.245C150.519 75.085 150.634 74.88 150.634 74.63C150.634 74.36 150.494 74.16 150.214 74.03C149.944 73.89 149.509 73.74 148.909 73.58C148.289 73.43 147.779 73.275 147.379 73.115C146.989 72.955 146.649 72.71 146.359 72.38C146.079 72.05 145.939 71.605 145.939 71.045C145.939 70.585 146.069 70.165 146.329 69.785C146.599 69.405 146.979 69.105 147.469 68.885C147.969 68.665 148.554 68.555 149.224 68.555C150.214 68.555 151.004 68.805 151.594 69.305C152.184 69.795 152.509 70.46 152.569 71.3H150.559C150.529 70.97 150.389 70.71 150.139 70.52C149.899 70.32 149.574 70.22 149.164 70.22C148.784 70.22 148.489 70.29 148.279 70.43C148.079 70.57 147.979 70.765 147.979 71.015C147.979 71.295 148.119 71.51 148.399 71.66C148.679 71.8 149.114 71.945 149.704 72.095C150.304 72.245 150.799 72.4 151.189 72.56C151.579 72.72 151.914 72.97 152.194 73.31C152.484 73.64 152.634 74.08 152.644 74.63C152.644 75.11 152.509 75.54 152.239 75.92C151.979 76.3 151.599 76.6 151.099 76.82C150.609 77.03 150.034 77.135 149.374 77.135ZM17.495 95.815C17.495 94.975 17.66 94.23 17.99 93.58C18.33 92.93 18.785 92.43 19.355 92.08C19.935 91.73 20.58 91.555 21.29 91.555C21.91 91.555 22.45 91.68 22.91 91.93C23.38 92.18 23.755 92.495 24.035 92.875V91.69H26.15V100H24.035V98.785C23.765 99.175 23.39 99.5 22.91 99.76C22.44 100.01 21.895 100.135 21.275 100.135C20.575 100.135 19.935 99.955 19.355 99.595C18.785 99.235 18.33 98.73 17.99 98.08C17.66 97.42 17.495 96.665 17.495 95.815ZM24.035 95.845C24.035 95.335 23.935 94.9 23.735 94.54C23.535 94.17 23.265 93.89 22.925 93.7C22.585 93.5 22.22 93.4 21.83 93.4C21.44 93.4 21.08 93.495 20.75 93.685C20.42 93.875 20.15 94.155 19.94 94.525C19.74 94.885 19.64 95.315 19.64 95.815C19.64 96.315 19.74 96.755 19.94 97.135C20.15 97.505 20.42 97.79 20.75 97.99C21.09 98.19 21.45 98.29 21.83 98.29C22.22 98.29 22.585 98.195 22.925 98.005C23.265 97.805 23.535 97.525 23.735 97.165C23.935 96.795 24.035 96.355 24.035 95.845ZM32.806 91.57C33.796 91.57 34.596 91.885 35.206 92.515C35.816 93.135 36.121 94.005 36.121 95.125V100H34.021V95.41C34.021 94.75 33.856 94.245 33.526 93.895C33.196 93.535 32.746 93.355 32.176 93.355C31.596 93.355 31.136 93.535 30.796 93.895C30.466 94.245 30.301 94.75 30.301 95.41V100H28.201V91.69H30.301V92.725C30.581 92.365 30.936 92.085 31.366 91.885C31.806 91.675 32.286 91.57 32.806 91.57ZM37.578 95.815C37.578 94.975 37.743 94.23 38.073 93.58C38.413 92.93 38.873 92.43 39.453 92.08C40.033 91.73 40.678 91.555 41.388 91.555C41.928 91.555 42.443 91.675 42.933 91.915C43.423 92.145 43.813 92.455 44.103 92.845V88.9H46.233V100H44.103V98.77C43.843 99.18 43.478 99.51 43.008 99.76C42.538 100.01 41.993 100.135 41.373 100.135C40.673 100.135 40.033 99.955 39.453 99.595C38.873 99.235 38.413 98.73 38.073 98.08C37.743 97.42 37.578 96.665 37.578 95.815ZM44.118 95.845C44.118 95.335 44.018 94.9 43.818 94.54C43.618 94.17 43.348 93.89 43.008 93.7C42.668 93.5 42.303 93.4 41.913 93.4C41.523 93.4 41.163 93.495 40.833 93.685C40.503 93.875 40.233 94.155 40.023 94.525C39.823 94.885 39.723 95.315 39.723 95.815C39.723 96.315 39.823 96.755 40.023 97.135C40.233 97.505 40.503 97.79 40.833 97.99C41.173 98.19 41.533 98.29 41.913 98.29C42.303 98.29 42.668 98.195 43.008 98.005C43.348 97.805 43.618 97.525 43.818 97.165C44.018 96.795 44.118 96.355 44.118 95.845ZM59.5832 95.665C59.5832 95.965 59.5632 96.235 59.5232 96.475H53.4482C53.4982 97.075 53.7082 97.545 54.0782 97.885C54.4482 98.225 54.9032 98.395 55.4432 98.395C56.2232 98.395 56.7782 98.06 57.1082 97.39H59.3732C59.1332 98.19 58.6732 98.85 57.9932 99.37C57.3132 99.88 56.4782 100.135 55.4882 100.135C54.6882 100.135 53.9682 99.96 53.3282 99.61C52.6982 99.25 52.2032 98.745 51.8432 98.095C51.4932 97.445 51.3182 96.695 51.3182 95.845C51.3182 94.985 51.4932 94.23 51.8432 93.58C52.1932 92.93 52.6832 92.43 53.3132 92.08C53.9432 91.73 54.6682 91.555 55.4882 91.555C56.2782 91.555 56.9832 91.725 57.6032 92.065C58.2332 92.405 58.7182 92.89 59.0582 93.52C59.4082 94.14 59.5832 94.855 59.5832 95.665ZM57.4082 95.065C57.3982 94.525 57.2032 94.095 56.8232 93.775C56.4432 93.445 55.9782 93.28 55.4282 93.28C54.9082 93.28 54.4682 93.44 54.1082 93.76C53.7582 94.07 53.5432 94.505 53.4632 95.065H57.4082ZM60.5761 95.815C60.5761 94.975 60.7411 94.23 61.0711 93.58C61.4111 92.93 61.8661 92.43 62.4361 92.08C63.0161 91.73 63.6611 91.555 64.3711 91.555C64.9911 91.555 65.5311 91.68 65.9911 91.93C66.4611 92.18 66.8361 92.495 67.1161 92.875V91.69H69.2311V100H67.1161V98.785C66.8461 99.175 66.4711 99.5 65.9911 99.76C65.5211 100.01 64.9761 100.135 64.3561 100.135C63.6561 100.135 63.0161 99.955 62.4361 99.595C61.8661 99.235 61.4111 98.73 61.0711 98.08C60.7411 97.42 60.5761 96.665 60.5761 95.815ZM67.1161 95.845C67.1161 95.335 67.0161 94.9 66.8161 94.54C66.6161 94.17 66.3461 93.89 66.0061 93.7C65.6661 93.5 65.3011 93.4 64.9111 93.4C64.5211 93.4 64.1611 93.495 63.8311 93.685C63.5011 93.875 63.2311 94.155 63.0211 94.525C62.8211 94.885 62.7211 95.315 62.7211 95.815C62.7211 96.315 62.8211 96.755 63.0211 97.135C63.2311 97.505 63.5011 97.79 63.8311 97.99C64.1711 98.19 64.5311 98.29 64.9111 98.29C65.3011 98.29 65.6661 98.195 66.0061 98.005C66.3461 97.805 66.6161 97.525 66.8161 97.165C67.0161 96.795 67.1161 96.355 67.1161 95.845ZM73.3821 92.98C73.6521 92.54 74.0021 92.195 74.4321 91.945C74.8721 91.695 75.3721 91.57 75.9321 91.57V93.775H75.3771C74.7171 93.775 74.2171 93.93 73.8771 94.24C73.5471 94.55 73.3821 95.09 73.3821 95.86V100H71.2821V91.69H73.3821V92.98ZM81.9515 91.57C82.9415 91.57 83.7415 91.885 84.3515 92.515C84.9615 93.135 85.2665 94.005 85.2665 95.125V100H83.1665V95.41C83.1665 94.75 83.0015 94.245 82.6715 93.895C82.3415 93.535 81.8915 93.355 81.3215 93.355C80.7415 93.355 80.2815 93.535 79.9415 93.895C79.6115 94.245 79.4465 94.75 79.4465 95.41V100H77.3465V91.69H79.4465V92.725C79.7265 92.365 80.0815 92.085 80.5115 91.885C80.9515 91.675 81.4315 91.57 81.9515 91.57ZM21.845 116.415H20.39V123H18.26V116.415H17.315V114.69H18.26V114.27C18.26 113.25 18.55 112.5 19.13 112.02C19.71 111.54 20.585 111.315 21.755 111.345V113.115C21.245 113.105 20.89 113.19 20.69 113.37C20.49 113.55 20.39 113.875 20.39 114.345V114.69H21.845V116.415ZM25.3059 115.98C25.5759 115.54 25.9259 115.195 26.3559 114.945C26.7959 114.695 27.2959 114.57 27.8559 114.57V116.775H27.3009C26.6409 116.775 26.1409 116.93 25.8009 117.24C25.4709 117.55 25.3059 118.09 25.3059 118.86V123H23.2059V114.69H25.3059V115.98ZM36.9954 118.665C36.9954 118.965 36.9754 119.235 36.9354 119.475H30.8604C30.9104 120.075 31.1204 120.545 31.4904 120.885C31.8604 121.225 32.3154 121.395 32.8554 121.395C33.6354 121.395 34.1904 121.06 34.5204 120.39H36.7854C36.5454 121.19 36.0854 121.85 35.4054 122.37C34.7254 122.88 33.8904 123.135 32.9004 123.135C32.1004 123.135 31.3804 122.96 30.7404 122.61C30.1104 122.25 29.6154 121.745 29.2554 121.095C28.9054 120.445 28.7304 119.695 28.7304 118.845C28.7304 117.985 28.9054 117.23 29.2554 116.58C29.6054 115.93 30.0954 115.43 30.7254 115.08C31.3554 114.73 32.0804 114.555 32.9004 114.555C33.6904 114.555 34.3954 114.725 35.0154 115.065C35.6454 115.405 36.1304 115.89 36.4704 116.52C36.8204 117.14 36.9954 117.855 36.9954 118.665ZM34.8204 118.065C34.8104 117.525 34.6154 117.095 34.2354 116.775C33.8554 116.445 33.3904 116.28 32.8404 116.28C32.3204 116.28 31.8804 116.44 31.5204 116.76C31.1704 117.07 30.9554 117.505 30.8754 118.065H34.8204ZM46.2532 118.665C46.2532 118.965 46.2332 119.235 46.1932 119.475H40.1182C40.1682 120.075 40.3782 120.545 40.7482 120.885C41.1182 121.225 41.5732 121.395 42.1132 121.395C42.8932 121.395 43.4482 121.06 43.7782 120.39H46.0432C45.8032 121.19 45.3432 121.85 44.6632 122.37C43.9832 122.88 43.1482 123.135 42.1582 123.135C41.3582 123.135 40.6382 122.96 39.9982 122.61C39.3682 122.25 38.8732 121.745 38.5132 121.095C38.1632 120.445 37.9882 119.695 37.9882 118.845C37.9882 117.985 38.1632 117.23 38.5132 116.58C38.8632 115.93 39.3532 115.43 39.9832 115.08C40.6132 114.73 41.3382 114.555 42.1582 114.555C42.9482 114.555 43.6532 114.725 44.2732 115.065C44.9032 115.405 45.3882 115.89 45.7282 116.52C46.0782 117.14 46.2532 117.855 46.2532 118.665ZM44.0782 118.065C44.0682 117.525 43.8732 117.095 43.4932 116.775C43.1132 116.445 42.6482 116.28 42.0982 116.28C41.5782 116.28 41.1382 116.44 40.7782 116.76C40.4282 117.07 40.2132 117.505 40.1332 118.065H44.0782ZM53.8052 116.415V120.435C53.8052 120.715 53.8702 120.92 54.0002 121.05C54.1402 121.17 54.3702 121.23 54.6902 121.23H55.6652V123H54.3452C52.5752 123 51.6902 122.14 51.6902 120.42V116.415H50.7002V114.69H51.6902V112.635H53.8052V114.69H55.6652V116.415H53.8052ZM58.2406 113.7C57.8706 113.7 57.5606 113.585 57.3106 113.355C57.0706 113.115 56.9506 112.82 56.9506 112.47C56.9506 112.12 57.0706 111.83 57.3106 111.6C57.5606 111.36 57.8706 111.24 58.2406 111.24C58.6106 111.24 58.9156 111.36 59.1556 111.6C59.4056 111.83 59.5306 112.12 59.5306 112.47C59.5306 112.82 59.4056 113.115 59.1556 113.355C58.9156 113.585 58.6106 113.7 58.2406 113.7ZM59.2756 114.69V123H57.1756V114.69H59.2756ZM60.8104 118.845C60.8104 117.985 60.9854 117.235 61.3354 116.595C61.6854 115.945 62.1704 115.445 62.7904 115.095C63.4104 114.735 64.1204 114.555 64.9204 114.555C65.9504 114.555 66.8004 114.815 67.4704 115.335C68.1504 115.845 68.6054 116.565 68.8354 117.495H66.5704C66.4504 117.135 66.2454 116.855 65.9554 116.655C65.6754 116.445 65.3254 116.34 64.9054 116.34C64.3054 116.34 63.8304 116.56 63.4804 117C63.1304 117.43 62.9554 118.045 62.9554 118.845C62.9554 119.635 63.1304 120.25 63.4804 120.69C63.8304 121.12 64.3054 121.335 64.9054 121.335C65.7554 121.335 66.3104 120.955 66.5704 120.195H68.8354C68.6054 121.095 68.1504 121.81 67.4704 122.34C66.7904 122.87 65.9404 123.135 64.9204 123.135C64.1204 123.135 63.4104 122.96 62.7904 122.61C62.1704 122.25 61.6854 121.75 61.3354 121.11C60.9854 120.46 60.8104 119.705 60.8104 118.845ZM75.2939 123L72.4739 119.46V123H70.3739V111.9H72.4739V118.215L75.2639 114.69H77.9939L74.3339 118.86L78.0239 123H75.2939ZM86.8586 118.665C86.8586 118.965 86.8386 119.235 86.7986 119.475H80.7236C80.7736 120.075 80.9836 120.545 81.3536 120.885C81.7236 121.225 82.1786 121.395 82.7186 121.395C83.4986 121.395 84.0536 121.06 84.3836 120.39H86.6486C86.4086 121.19 85.9486 121.85 85.2686 122.37C84.5886 122.88 83.7536 123.135 82.7636 123.135C81.9636 123.135 81.2436 122.96 80.6036 122.61C79.9736 122.25 79.4786 121.745 79.1186 121.095C78.7686 120.445 78.5936 119.695 78.5936 118.845C78.5936 117.985 78.7686 117.23 79.1186 116.58C79.4686 115.93 79.9586 115.43 80.5886 115.08C81.2186 114.73 81.9436 114.555 82.7636 114.555C83.5536 114.555 84.2586 114.725 84.8786 115.065C85.5086 115.405 85.9936 115.89 86.3336 116.52C86.6836 117.14 86.8586 117.855 86.8586 118.665ZM84.6836 118.065C84.6736 117.525 84.4786 117.095 84.0986 116.775C83.7186 116.445 83.2536 116.28 82.7036 116.28C82.1836 116.28 81.7436 116.44 81.3836 116.76C81.0336 117.07 80.8186 117.505 80.7386 118.065H84.6836ZM90.8364 116.415V120.435C90.8364 120.715 90.9014 120.92 91.0314 121.05C91.1714 121.17 91.4014 121.23 91.7214 121.23H92.6964V123H91.3764C89.6064 123 88.7214 122.14 88.7214 120.42V116.415H87.7314V114.69H88.7214V112.635H90.8364V114.69H92.6964V116.415H90.8364ZM97.3869 123.135C96.7069 123.135 96.0969 123.015 95.5569 122.775C95.0169 122.525 94.5869 122.19 94.2669 121.77C93.9569 121.35 93.7869 120.885 93.7569 120.375H95.8719C95.9119 120.695 96.0669 120.96 96.3369 121.17C96.6169 121.38 96.9619 121.485 97.3719 121.485C97.7719 121.485 98.0819 121.405 98.3019 121.245C98.5319 121.085 98.6469 120.88 98.6469 120.63C98.6469 120.36 98.5069 120.16 98.2269 120.03C97.9569 119.89 97.5219 119.74 96.9219 119.58C96.3019 119.43 95.7919 119.275 95.3919 119.115C95.0019 118.955 94.6619 118.71 94.3719 118.38C94.0919 118.05 93.9519 117.605 93.9519 117.045C93.9519 116.585 94.0819 116.165 94.3419 115.785C94.6119 115.405 94.9919 115.105 95.4819 114.885C95.9819 114.665 96.5669 114.555 97.2369 114.555C98.2269 114.555 99.0169 114.805 99.6069 115.305C100.197 115.795 100.522 116.46 100.582 117.3H98.5719C98.5419 116.97 98.4019 116.71 98.1519 116.52C97.9119 116.32 97.5869 116.22 97.1769 116.22C96.7969 116.22 96.5019 116.29 96.2919 116.43C96.0919 116.57 95.9919 116.765 95.9919 117.015C95.9919 117.295 96.1319 117.51 96.4119 117.66C96.6919 117.8 97.1269 117.945 97.7169 118.095C98.3169 118.245 98.8119 118.4 99.2019 118.56C99.5919 118.72 99.9269 118.97 100.207 119.31C100.497 119.64 100.647 120.08 100.657 120.63C100.657 121.11 100.522 121.54 100.252 121.92C99.9919 122.3 99.6119 122.6 99.1119 122.82C98.6219 123.03 98.0469 123.135 97.3869 123.135Z" fill="#333333" fill-opacity="0.8"/>
<rect x="30" y="182" width="112" height="30" rx="15" fill="#BE123C" fill-opacity="0.2"/>
<path d="M50.648 201.084C50.088 201.084 49.584 200.988 49.136 200.796C48.688 200.596 48.336 200.316 48.08 199.956C47.824 199.596 47.696 199.176 47.696 198.696H49.16C49.192 199.056 49.332 199.352 49.58 199.584C49.836 199.816 50.192 199.932 50.648 199.932C51.12 199.932 51.488 199.82 51.752 199.596C52.016 199.364 52.148 199.068 52.148 198.708C52.148 198.428 52.064 198.2 51.896 198.024C51.736 197.848 51.532 197.712 51.284 197.616C51.044 197.52 50.708 197.416 50.276 197.304C49.732 197.16 49.288 197.016 48.944 196.872C48.608 196.72 48.32 196.488 48.08 196.176C47.84 195.864 47.72 195.448 47.72 194.928C47.72 194.448 47.84 194.028 48.08 193.668C48.32 193.308 48.656 193.032 49.088 192.84C49.52 192.648 50.02 192.552 50.588 192.552C51.396 192.552 52.056 192.756 52.568 193.164C53.088 193.564 53.376 194.116 53.432 194.82H51.92C51.896 194.516 51.752 194.256 51.488 194.04C51.224 193.824 50.876 193.716 50.444 193.716C50.052 193.716 49.732 193.816 49.484 194.016C49.236 194.216 49.112 194.504 49.112 194.88C49.112 195.136 49.188 195.348 49.34 195.516C49.5 195.676 49.7 195.804 49.94 195.9C50.18 195.996 50.508 196.1 50.924 196.212C51.476 196.364 51.924 196.516 52.268 196.668C52.62 196.82 52.916 197.056 53.156 197.376C53.404 197.688 53.528 198.108 53.528 198.636C53.528 199.06 53.412 199.46 53.18 199.836C52.956 200.212 52.624 200.516 52.184 200.748C51.752 200.972 51.24 201.084 50.648 201.084ZM56.7382 195.504V199.164C56.7382 199.412 56.7942 199.592 56.9062 199.704C57.0262 199.808 57.2262 199.86 57.5062 199.86H58.3462V201H57.2662C56.6502 201 56.1782 200.856 55.8502 200.568C55.5222 200.28 55.3582 199.812 55.3582 199.164V195.504H54.5782V194.388H55.3582V192.744H56.7382V194.388H58.3462V195.504H56.7382ZM59.151 197.664C59.151 197 59.287 196.412 59.559 195.9C59.839 195.388 60.215 194.992 60.687 194.712C61.167 194.424 61.695 194.28 62.271 194.28C62.791 194.28 63.243 194.384 63.627 194.592C64.019 194.792 64.331 195.044 64.563 195.348V194.388H65.943V201H64.563V200.016C64.331 200.328 64.015 200.588 63.615 200.796C63.215 201.004 62.759 201.108 62.247 201.108C61.679 201.108 61.159 200.964 60.687 200.676C60.215 200.38 59.839 199.972 59.559 199.452C59.287 198.924 59.151 198.328 59.151 197.664ZM64.563 197.688C64.563 197.232 64.467 196.836 64.275 196.5C64.091 196.164 63.847 195.908 63.543 195.732C63.239 195.556 62.911 195.468 62.559 195.468C62.207 195.468 61.879 195.556 61.575 195.732C61.271 195.9 61.023 196.152 60.831 196.488C60.647 196.816 60.555 197.208 60.555 197.664C60.555 198.12 60.647 198.52 60.831 198.864C61.023 199.208 61.271 199.472 61.575 199.656C61.887 199.832 62.215 199.92 62.559 199.92C62.911 199.92 63.239 199.832 63.543 199.656C63.847 199.48 64.091 199.224 64.275 198.888C64.467 198.544 64.563 198.144 64.563 197.688ZM69.1078 195.348C69.3078 195.012 69.5718 194.752 69.8998 194.568C70.2358 194.376 70.6318 194.28 71.0878 194.28V195.696H70.7398C70.2038 195.696 69.7958 195.832 69.5158 196.104C69.2438 196.376 69.1078 196.848 69.1078 197.52V201H67.7398V194.388H69.1078V195.348ZM73.9413 195.504V199.164C73.9413 199.412 73.9973 199.592 74.1093 199.704C74.2293 199.808 74.4293 199.86 74.7093 199.86H75.5493V201H74.4693C73.8533 201 73.3813 200.856 73.0533 200.568C72.7253 200.28 72.5613 199.812 72.5613 199.164V195.504H71.7813V194.388H72.5613V192.744H73.9413V194.388H75.5493V195.504H73.9413ZM81.2953 195.36C81.5273 195.056 81.8433 194.8 82.2433 194.592C82.6433 194.384 83.0953 194.28 83.5993 194.28C84.1753 194.28 84.6993 194.424 85.1713 194.712C85.6513 194.992 86.0273 195.388 86.2993 195.9C86.5713 196.412 86.7073 197 86.7073 197.664C86.7073 198.328 86.5713 198.924 86.2993 199.452C86.0273 199.972 85.6513 200.38 85.1713 200.676C84.6993 200.964 84.1753 201.108 83.5993 201.108C83.0953 201.108 82.6473 201.008 82.2553 200.808C81.8633 200.6 81.5433 200.344 81.2953 200.04V204.144H79.9273V194.388H81.2953V195.36ZM85.3153 197.664C85.3153 197.208 85.2193 196.816 85.0273 196.488C84.8433 196.152 84.5953 195.9 84.2833 195.732C83.9793 195.556 83.6513 195.468 83.2993 195.468C82.9553 195.468 82.6273 195.556 82.3153 195.732C82.0113 195.908 81.7633 196.164 81.5713 196.5C81.3873 196.836 81.2953 197.232 81.2953 197.688C81.2953 198.144 81.3873 198.544 81.5713 198.888C81.7633 199.224 82.0113 199.48 82.3153 199.656C82.6273 199.832 82.9553 199.92 83.2993 199.92C83.6513 199.92 83.9793 199.832 84.2833 199.656C84.5953 199.472 84.8433 199.208 85.0273 198.864C85.2193 198.52 85.3153 198.12 85.3153 197.664ZM89.4282 192.12V201H88.0602V192.12H89.4282ZM90.7682 197.664C90.7682 197 90.9042 196.412 91.1762 195.9C91.4562 195.388 91.8322 194.992 92.3042 194.712C92.7842 194.424 93.3122 194.28 93.8882 194.28C94.4082 194.28 94.8602 194.384 95.2442 194.592C95.6362 194.792 95.9482 195.044 96.1802 195.348V194.388H97.5602V201H96.1802V200.016C95.9482 200.328 95.6322 200.588 95.2322 200.796C94.8322 201.004 94.3762 201.108 93.8642 201.108C93.2962 201.108 92.7762 200.964 92.3042 200.676C91.8322 200.38 91.4562 199.972 91.1762 199.452C90.9042 198.924 90.7682 198.328 90.7682 197.664ZM96.1802 197.688C96.1802 197.232 96.0842 196.836 95.8922 196.5C95.7082 196.164 95.4642 195.908 95.1602 195.732C94.8562 195.556 94.5282 195.468 94.1762 195.468C93.8242 195.468 93.4962 195.556 93.1922 195.732C92.8882 195.9 92.6402 196.152 92.4482 196.488C92.2642 196.816 92.1722 197.208 92.1722 197.664C92.1722 198.12 92.2642 198.52 92.4482 198.864C92.6402 199.208 92.8882 199.472 93.1922 199.656C93.5042 199.832 93.8322 199.92 94.1762 199.92C94.5282 199.92 94.8562 199.832 95.1602 199.656C95.4642 199.48 95.7082 199.224 95.8922 198.888C96.0842 198.544 96.1802 198.144 96.1802 197.688ZM105.309 194.388L101.253 204.108H99.837L101.181 200.892L98.577 194.388H100.101L101.961 199.428L103.893 194.388H105.309ZM107.037 193.512C106.789 193.512 106.581 193.428 106.413 193.26C106.245 193.092 106.161 192.884 106.161 192.636C106.161 192.388 106.245 192.18 106.413 192.012C106.581 191.844 106.789 191.76 107.037 191.76C107.277 191.76 107.481 191.844 107.649 192.012C107.817 192.18 107.901 192.388 107.901 192.636C107.901 192.884 107.817 193.092 107.649 193.26C107.481 193.428 107.277 193.512 107.037 193.512ZM107.709 194.388V201H106.341V194.388H107.709ZM112.841 194.28C113.361 194.28 113.825 194.388 114.233 194.604C114.649 194.82 114.973 195.14 115.205 195.564C115.437 195.988 115.553 196.5 115.553 197.1V201H114.197V197.304C114.197 196.712 114.049 196.26 113.753 195.948C113.457 195.628 113.053 195.468 112.541 195.468C112.029 195.468 111.621 195.628 111.317 195.948C111.021 196.26 110.873 196.712 110.873 197.304V201H109.505V194.388H110.873V195.144C111.097 194.872 111.381 194.66 111.725 194.508C112.077 194.356 112.449 194.28 112.841 194.28ZM119.962 194.28C120.474 194.28 120.926 194.384 121.318 194.592C121.718 194.792 122.03 195.044 122.254 195.348V194.388H123.634V201.108C123.634 201.716 123.506 202.256 123.25 202.728C122.994 203.208 122.622 203.584 122.134 203.856C121.654 204.128 121.078 204.264 120.406 204.264C119.51 204.264 118.766 204.052 118.174 203.628C117.582 203.212 117.246 202.644 117.166 201.924H118.522C118.626 202.268 118.846 202.544 119.182 202.752C119.526 202.968 119.934 203.076 120.406 203.076C120.958 203.076 121.402 202.908 121.738 202.572C122.082 202.236 122.254 201.748 122.254 201.108V200.004C122.022 200.316 121.706 200.58 121.306 200.796C120.914 201.004 120.466 201.108 119.962 201.108C119.386 201.108 118.858 200.964 118.378 200.676C117.906 200.38 117.53 199.972 117.25 199.452C116.978 198.924 116.842 198.328 116.842 197.664C116.842 197 116.978 196.412 117.25 195.9C117.53 195.388 117.906 194.992 118.378 194.712C118.858 194.424 119.386 194.28 119.962 194.28ZM122.254 197.688C122.254 197.232 122.158 196.836 121.966 196.5C121.782 196.164 121.538 195.908 121.234 195.732C120.93 195.556 120.602 195.468 120.25 195.468C119.898 195.468 119.57 195.556 119.266 195.732C118.962 195.9 118.714 196.152 118.522 196.488C118.338 196.816 118.246 197.208 118.246 197.664C118.246 198.12 118.338 198.52 118.522 198.864C118.714 199.208 118.962 199.472 119.266 199.656C119.578 199.832 119.906 199.92 120.25 199.92C120.602 199.92 120.93 199.832 121.234 199.656C121.538 199.48 121.782 199.224 121.966 198.888C122.158 198.544 122.254 198.144 122.254 197.688Z" fill="#BE123C"/>
</svg>
